<svg width="157" height="141" fill="none" xmlns="http://www.w3.org/2000/svg"><path fill-rule="evenodd" clip-rule="evenodd" d="M4.558 52.768c2.193 0 3.971-1.84 3.971-4.107 0-2.269-1.778-4.108-3.971-4.108-2.194 0-3.972 1.84-3.972 4.108s1.778 4.107 3.972 4.107Zm3.971 17.798c0 2.268-1.778 4.107-3.971 4.107-2.194 0-3.972-1.84-3.972-4.107 0-2.269 1.778-4.108 3.972-4.108 2.193 0 3.971 1.84 3.971 4.108ZM4.558 96.578c2.193 0 3.971-1.84 3.971-4.107 0-2.269-1.778-4.108-3.971-4.108-2.194 0-3.972 1.84-3.972 4.108s1.778 4.107 3.972 4.107Zm3.971 17.797c0 2.269-1.778 4.108-3.971 4.108-2.194 0-3.972-1.839-3.972-4.108 0-2.268 1.778-4.107 3.972-4.107 2.193 0 3.971 1.839 3.971 4.107Zm-3.971 26.013c2.193 0 3.971-1.839 3.971-4.107 0-2.269-1.778-4.108-3.971-4.108-2.194 0-3.972 1.839-3.972 4.108 0 2.268 1.778 4.107 3.972 4.107ZM29.71 4.851c0 2.268-1.778 4.107-3.972 4.107-2.193 0-3.971-1.84-3.971-4.107 0-2.269 1.778-4.108 3.971-4.108 2.194 0 3.972 1.84 3.972 4.108Zm-3.972 26.012c2.194 0 3.972-1.84 3.972-4.107 0-2.269-1.778-4.108-3.972-4.108-2.193 0-3.971 1.84-3.971 4.108s1.778 4.107 3.971 4.107Zm0 43.81c2.194 0 3.972-1.84 3.972-4.107 0-2.269-1.778-4.108-3.972-4.108-2.193 0-3.971 1.84-3.971 4.108s1.778 4.107 3.971 4.107Zm0 43.81c2.194 0 3.972-1.839 3.972-4.108 0-2.268-1.778-4.107-3.972-4.107-2.193 0-3.971 1.839-3.971 4.107 0 2.269 1.778 4.108 3.971 4.108Zm3.972 17.798c0 2.268-1.778 4.107-3.972 4.107-2.193 0-3.971-1.839-3.971-4.107 0-2.269 1.778-4.108 3.971-4.108 2.194 0 3.972 1.839 3.972 4.108Zm17.21-83.513c2.194 0 3.972-1.84 3.972-4.107 0-2.269-1.779-4.108-3.972-4.108s-3.971 1.84-3.971 4.108 1.778 4.107 3.971 4.107Zm0 87.62c2.194 0 3.972-1.839 3.972-4.107 0-2.269-1.779-4.108-3.972-4.108s-3.971 1.839-3.971 4.108c0 2.268 1.778 4.107 3.971 4.107ZM72.074 4.851c0 2.268-1.778 4.107-3.971 4.107-2.194 0-3.972-1.84-3.972-4.107 0-2.269 1.778-4.108 3.972-4.108 2.193 0 3.971 1.84 3.971 4.108Zm0 43.81c0 2.268-1.778 4.107-3.971 4.107-2.194 0-3.972-1.84-3.972-4.107 0-2.269 1.778-4.108 3.972-4.108 2.193 0 3.972 1.84 3.972 4.108Zm0 87.619c0 2.269-1.778 4.108-3.971 4.108-2.194 0-3.972-1.839-3.972-4.108 0-2.268 1.778-4.107 3.972-4.107 2.193 0 3.972 1.839 3.972 4.107Zm17.21-39.702c2.194 0 3.972-1.84 3.972-4.108s-1.778-4.107-3.971-4.107c-2.194 0-3.972 1.84-3.972 4.108s1.778 4.107 3.972 4.107Zm0 43.81c2.194 0 3.972-1.839 3.972-4.108 0-2.268-1.778-4.107-3.971-4.107-2.194 0-3.972 1.839-3.972 4.107 0 2.269 1.778 4.108 3.972 4.108Zm25.154-47.918c0 2.269-1.778 4.108-3.972 4.108-2.193 0-3.971-1.84-3.971-4.108s1.778-4.107 3.971-4.107c2.194 0 3.972 1.84 3.972 4.108Zm0 43.81c0 2.269-1.778 4.108-3.972 4.108-2.193 0-3.971-1.839-3.971-4.108 0-2.268 1.778-4.107 3.971-4.107 2.194 0 3.972 1.839 3.972 4.107Zm17.21-127.322c2.194 0 3.972-1.84 3.972-4.107 0-2.269-1.778-4.108-3.972-4.108-2.193 0-3.972 1.84-3.972 4.108s1.779 4.107 3.972 4.107Zm0 87.62c2.194 0 3.972-1.84 3.972-4.108s-1.778-4.107-3.972-4.107c-2.193 0-3.971 1.84-3.971 4.108s1.778 4.107 3.971 4.107Zm0 43.81c2.194 0 3.972-1.839 3.972-4.108 0-2.268-1.778-4.107-3.972-4.107-2.193 0-3.971 1.839-3.971 4.107 0 2.269 1.778 4.108 3.971 4.108ZM152.83 30.863c2.193 0 3.971-1.84 3.971-4.107 0-2.269-1.778-4.108-3.971-4.108-2.194 0-3.972 1.84-3.972 4.108s1.778 4.107 3.972 4.107Zm3.971 17.798c0 2.268-1.778 4.107-3.971 4.107-2.194 0-3.972-1.84-3.972-4.107 0-2.269 1.778-4.108 3.972-4.108 2.193 0 3.971 1.84 3.971 4.108Zm-3.971 26.012c2.193 0 3.971-1.84 3.971-4.107 0-2.269-1.778-4.108-3.971-4.108-2.194 0-3.972 1.84-3.972 4.108s1.778 4.107 3.972 4.107Zm3.971 17.797c0 2.269-1.778 4.108-3.971 4.108-2.194 0-3.972-1.84-3.972-4.108s1.778-4.107 3.972-4.107c2.193 0 3.971 1.84 3.971 4.108Zm-3.971 26.013c2.193 0 3.971-1.839 3.971-4.108 0-2.268-1.778-4.107-3.971-4.107-2.194 0-3.972 1.839-3.972 4.107 0 2.269 1.778 4.108 3.972 4.108Zm0 21.905c2.193 0 3.971-1.839 3.971-4.108 0-2.268-1.778-4.107-3.971-4.107-2.194 0-3.972 1.839-3.972 4.107 0 2.269 1.778 4.108 3.972 4.108Zm3.971-135.537c0 2.268-1.778 4.107-3.971 4.107-2.194 0-3.972-1.84-3.972-4.107 0-2.269 1.778-4.108 3.972-4.108 2.193 0 3.971 1.84 3.971 4.108ZM135.62 114.375c0 2.269-1.778 4.108-3.972 4.108-2.193 0-3.971-1.839-3.971-4.108 0-2.268 1.778-4.107 3.971-4.107 2.194 0 3.972 1.839 3.972 4.107Zm0-43.81c0 2.269-1.778 4.108-3.972 4.108-2.193 0-3.971-1.84-3.971-4.107 0-2.269 1.778-4.108 3.971-4.108 2.194 0 3.972 1.84 3.972 4.108Zm-3.972-17.797c2.194 0 3.972-1.84 3.972-4.107 0-2.269-1.778-4.108-3.972-4.108-2.193 0-3.971 1.84-3.971 4.108s1.778 4.107 3.971 4.107Zm3.972-26.012c0 2.268-1.778 4.107-3.972 4.107-2.193 0-3.971-1.84-3.971-4.107 0-2.269 1.778-4.108 3.971-4.108 2.194 0 3.972 1.84 3.972 4.108Zm-25.154 91.727c2.194 0 3.972-1.839 3.972-4.108 0-2.268-1.778-4.107-3.972-4.107-2.193 0-3.971 1.839-3.971 4.107 0 2.269 1.778 4.108 3.971 4.108Zm0-43.81c2.194 0 3.972-1.84 3.972-4.107 0-2.269-1.778-4.108-3.972-4.108-2.193 0-3.971 1.84-3.971 4.108s1.778 4.107 3.971 4.107Zm3.972-26.012c0 2.268-1.778 4.107-3.972 4.107-2.193 0-3.971-1.84-3.971-4.107 0-2.269 1.778-4.108 3.971-4.108 2.194 0 3.972 1.84 3.972 4.108Zm-3.972-17.798c2.194 0 3.972-1.84 3.972-4.107 0-2.269-1.778-4.108-3.972-4.108-2.193 0-3.971 1.84-3.971 4.108s1.778 4.107 3.971 4.107Zm3.972-26.012c0 2.268-1.778 4.107-3.972 4.107-2.193 0-3.971-1.84-3.971-4.107 0-2.269 1.778-4.108 3.971-4.108 2.194 0 3.972 1.84 3.972 4.108ZM93.256 114.375c0 2.269-1.778 4.108-3.971 4.108-2.194 0-3.972-1.839-3.972-4.108 0-2.268 1.778-4.107 3.972-4.107 2.193 0 3.971 1.839 3.971 4.107Zm0-43.81c0 2.269-1.778 4.108-3.971 4.108-2.194 0-3.972-1.84-3.972-4.107 0-2.269 1.778-4.108 3.972-4.108 2.193 0 3.971 1.84 3.971 4.108Zm-3.971-17.797c2.193 0 3.971-1.84 3.971-4.107 0-2.269-1.778-4.108-3.971-4.108-2.194 0-3.972 1.84-3.972 4.108s1.778 4.107 3.972 4.107Zm3.971-26.012c0 2.268-1.778 4.107-3.971 4.107-2.194 0-3.972-1.84-3.972-4.107 0-2.269 1.778-4.108 3.972-4.108 2.193 0 3.971 1.84 3.971 4.108ZM89.285 8.958c2.193 0 3.971-1.84 3.971-4.107 0-2.269-1.778-4.108-3.971-4.108-2.194 0-3.972 1.84-3.972 4.108s1.778 4.107 3.972 4.107ZM68.103 118.483c2.193 0 3.972-1.839 3.972-4.108 0-2.268-1.779-4.107-3.972-4.107-2.194 0-3.972 1.839-3.972 4.107 0 2.269 1.778 4.108 3.972 4.108Zm3.972-26.012c0 2.268-1.779 4.107-3.972 4.107-2.194 0-3.972-1.84-3.972-4.107 0-2.269 1.778-4.108 3.972-4.108 2.193 0 3.972 1.84 3.972 4.108Zm-3.972-17.798c2.193 0 3.972-1.84 3.972-4.107 0-2.269-1.779-4.108-3.972-4.108-2.194 0-3.972 1.84-3.972 4.108s1.778 4.107 3.972 4.107Zm0-43.81c2.193 0 3.972-1.84 3.972-4.107 0-2.269-1.779-4.108-3.972-4.108-2.194 0-3.972 1.84-3.972 4.108s1.778 4.107 3.972 4.107Zm-17.21 83.512c0 2.269-1.779 4.108-3.972 4.108s-3.971-1.839-3.971-4.108c0-2.268 1.778-4.107 3.971-4.107 2.194 0 3.972 1.839 3.972 4.107ZM46.92 96.578c2.194 0 3.972-1.84 3.972-4.107 0-2.269-1.779-4.108-3.972-4.108s-3.971 1.84-3.971 4.108 1.778 4.107 3.971 4.107Zm3.972-26.012c0 2.268-1.779 4.107-3.972 4.107s-3.971-1.84-3.971-4.107c0-2.269 1.778-4.108 3.971-4.108 2.194 0 3.972 1.84 3.972 4.108Zm0-43.81c0 2.268-1.779 4.107-3.972 4.107s-3.971-1.84-3.971-4.107c0-2.269 1.778-4.108 3.971-4.108 2.194 0 3.972 1.84 3.972 4.108ZM46.92 8.958c2.194 0 3.972-1.84 3.972-4.107 0-2.269-1.779-4.108-3.972-4.108s-3.971 1.84-3.971 4.108 1.778 4.107 3.971 4.107ZM29.711 92.47c0 2.268-1.778 4.107-3.972 4.107-2.193 0-3.971-1.84-3.971-4.107 0-2.269 1.778-4.108 3.971-4.108 2.194 0 3.972 1.84 3.972 4.108Zm0-43.81c0 2.268-1.778 4.107-3.972 4.107-2.193 0-3.971-1.84-3.971-4.107 0-2.269 1.778-4.108 3.971-4.108 2.194 0 3.972 1.84 3.972 4.108ZM8.529 26.756c0 2.268-1.778 4.107-3.971 4.107-2.194 0-3.972-1.84-3.972-4.107 0-2.269 1.778-4.108 3.972-4.108 2.193 0 3.971 1.84 3.971 4.108ZM4.558 8.958c2.193 0 3.971-1.839 3.971-4.107C8.53 2.582 6.751.743 4.558.743 2.364.743.586 2.583.586 4.851s1.778 4.107 3.972 4.107Z" fill="#74D5DE"/></svg>